<svg width="192" height="192" viewBox="0 0 192 192" fill="none" xmlns="http://www.w3.org/2000/svg">
<path d="M152.709 107.873H158.038V86.4037H152.708L152.709 107.873ZM162.892 80.9841H182V74.9989H162.892V80.9841ZM128.404 80.9841H147.523V74.9989H128.405L128.404 80.9841ZM152.709 69.4606H158.038V48H152.708L152.709 69.4606Z" fill="#F5821F"/>
<path d="M21.4985 142.791H10V80.9827H21.4985V106.121L42.4963 80.9827H57.3805L34.9144 106.28L58.6839 142.791H43.8863L26.8643 115.673L21.4995 121.871L21.4985 142.791Z" fill="#ED1C24"/>
<path d="M96.3362 80.9824H85.5928V102.933H85.4434C83.7547 99.9976 80.5339 95.7808 73.6297 95.7808C64.6578 95.7808 56.687 103.533 56.687 119.381C56.687 131.943 61.745 143.997 73.8656 143.997C78.3105 143.997 83.0615 142.189 85.6675 137.022H85.825V142.79H96.3362V80.9824ZM67.7356 120.238C67.7356 113.007 70.0236 106.196 76.8577 106.196C84.2147 106.196 86.0537 113.613 86.0537 120.927C86.0537 127.726 83.3685 134.09 76.5508 134.09C69.6456 134.09 67.7356 125.658 67.7356 120.238ZM142.793 142.792H132.06V114.984C132.06 111.625 131.902 105.945 125.08 105.945C120.325 105.945 116.64 109.552 116.64 116.545V142.792H105.909V96.9938H116.184V103.703H116.341C117.793 100.946 120.864 95.7787 128.607 95.7787C136.582 95.7787 142.794 101.039 142.794 111.112L142.793 142.792Z" fill="#ED1C24"/>
</svg>
