<svg width="13" height="12" viewBox="0 0 13 12" fill="none" xmlns="http://www.w3.org/2000/svg">
<path d="M3.103 3.28443H10.1197C10.3967 3.28403 10.6681 3.36208 10.9026 3.50956C11.1371 3.65704 11.325 3.86791 11.4447 4.11776C11.5847 4.41421 11.6386 4.74404 11.6003 5.06965C11.562 5.39526 11.433 5.70357 11.228 5.95943L7.71967 10.2094C7.58198 10.3683 7.41176 10.4957 7.22054 10.583C7.02931 10.6703 6.82155 10.7155 6.61133 10.7155C6.40111 10.7155 6.19335 10.6703 6.00213 10.583C5.8109 10.4957 5.64068 10.3683 5.503 10.2094L1.99466 5.95943C1.78966 5.70357 1.66065 5.39526 1.62235 5.06965C1.58404 4.74404 1.63797 4.41421 1.778 4.11776C1.89762 3.86791 2.08555 3.65704 2.32004 3.50956C2.55453 3.36208 2.82599 3.28403 3.103 3.28443Z" fill="#333333"/>
</svg>
